<?xml version="1.0" encoding="UTF-8"?>
<svg id="Layer_1" xmlns="http://www.w3.org/2000/svg" version="1.1" viewBox="0 0 175.9 168.6">
  <!-- Generator: Adobe Illustrator 29.8.1, SVG Export Plug-In . SVG Version: 2.1.1 Build 2)  -->
  <defs>
    <style>
      .st0 {
        fill: #fff;
      }

      .st1 {
        fill: none;
        stroke: #64ff57;
        stroke-miterlimit: 10;
        stroke-width: .4px;
      }
    </style>
  </defs>
  <path class="st0" d="M39.4,37.2s-2.5-.7-.6,1.5c0,0,11.5,12.7,15,21.6,0,0,5.3-6.6,10.1-9.8,0,0-17.7-6.6-24.4-13.3ZM54,57.1l-8.2-12.6,12.1,7.3-4,5.3Z"/>
  <path class="st0" d="M100.2,48c-1.5-2.2.2-5.8.2-5.8,0,0,3.1-2.8,2.1-8.3-1-5.6-5.3-7.1-10.9-10.6-5.6-3.4-1.5-11.4-1.5-11.4,2.8-5.2.9-9,.9-9-.5,3-4.9,7.7-4.9,7.7-7.7,6.7-3.8,13.3-3.8,13.3,4.4,8.3-3.2,13.2-3.2,13.2-6.5,5.1-3.4,13.8-3.4,13.8,9.6-3.2,21.6.3,24.2,1.2,2.6.9,2-.7,2-.7,0,0,0-1.1-1.5-3.4ZM84.4,47.8l-5.3.3s-3.8-6.1,3.4-12.5c0,0,4.7-2.2,3-8-1.7-5.8-3.6-5.9-2.8-9.3.8-3.4,2-3.4,2-3.4,0,0,.7,6.7,2.7,8.8,2,2.1,3.5,7.1,3.4,8.5s.3,3.3-3.4,7.8c-3.7,4.6-2.8,7.7-2.8,7.7ZM95.3,49.2l-5.9-1s-1.7-4.6,2.2-9.4c0,0,3-6.6-1.3-12.8s-4.7-10.2-3-13.3c0,0-1.4,7,3.4,12.5,0,0,2.7,2,5.6,3.2,2.9,1.2,4.4,3.7,3.8,7-.3,1.9.3,2.2-3.1,5.7s-1.6,8.3-1.6,8.3Z"/>
  <path class="st0" d="M133.6,38.9c-2.9,2.1-19.4,14.5-23.5,16.4l9.1,10s11.6-21.8,17.7-27.3c0,0-.4-1.1-3.4.9ZM126.2,50.1l-8.3,9.8-4-4.4s4.2-3.7,6.5-4.6c2.2-.9,3.1-.6,3.1-.6,2.1-3.3,7.2-6.7,7.2-6.7l-4.5,6.5Z"/>
  <path class="st0" d="M166.5,94.9s-6.9-7.9-8.7-9.1c-1.8-1.2-8-4.2-15.7-3.6,0,0-6.5,0-11.4-6s-9.6-2.6-9.6-2.6c0,0,4.8,14.6,0,26.2,0,0,5.6-2.7,10.2,2.3,0,0,5.3,5.1,11.2.4,0,0,5.9-10.7,20.6-6.5l8.2,2.8-4.7-3.9ZM143.3,99c-2.6,2.6-5.8,4.1-9.6,0-3.8-4.1-9.1-3.9-9.1-3.9l.4-8.2c5-.3,6.3,2.4,6.3,2.4,5.8,5.3,11.1,2.8,11.1,2.8,11.3-5.8,17.9,1.5,17.9,1.5-8.7-2.1-14.5,2.8-17,5.3ZM144.8,89c-6.2,2.8-9.3.9-11.7-2.2-2.4-3-8.5-5.3-8.5-5.3v-4.2s4.2.3,8.3,4.6c4,4.4,10.1,2.8,10.1,2.8,12.7-2.1,18.3,7.4,18.3,7.4-4.2-3.3-10.2-6-16.4-3.2Z"/>
  <path class="st0" d="M118.2,106.5s-2.5,5.9-9.8,11.1l25.8,15.6-16-26.7ZM113.1,116.4c1.1-.5,5.3-5.6,5.3-5.6h.4l4.6,8.4s-11.5-2.3-10.4-2.8ZM129.3,127.9l-12.5-8.6s11.1,1.3,12.5,8.6Z"/>
  <path class="st0" d="M100.4,119.3s-12,6.6-29.5,0c0,0-5.9,10.4,4.3,16.2,0,0,6.7,1.5,3.9,8.7-2.8,7.1-2.2,9.3,6.1,18.4,0,0,2.9,2.3,1.3-.7-1.6-3-2.6-10.1,3.4-14.9,5.9-4.8,8.1-7.9,6.6-14.5,0,0-.8-4.9,3.3-8.9,0,0,2.1-2.1.7-4.3ZM79.8,147c1.5-4.5,3-4.2,1.9-8.5s-5.3-6-5.3-6c0,0-4.6-6.9-1.3-9.4h2v1.6c0,0,0,6.4,6.1,8.5,0,0,4.7,3.2,1,9-3.7,5.8-2.8,13-2.8,13,0,0-3.1-3.7-1.7-8.2ZM91.4,143.2c-6.7,5-8.2,12-8.2,12-1.3-2.3.9-8.2.9-8.2,0,0,2.1-3.4,3.5-7.1s.6-6-3.6-9.1c-4.1-3.1-1.5-6.5-1.5-6.5,3.1.9,10.9-.8,10.9-.8l-.3,1.2c-2.3,3.1-.3,8.4-.3,8.4,4,7.6-1.6,10-1.6,10Z"/>
  <path class="st0" d="M53,106.5c-3.6,7.9-15.4,23.9-15.4,23.9,11.1-6.3,25-13.2,25-13.2-3.5-2.2-9.6-10.8-9.6-10.8ZM43.9,125.6s3.4-6.9,10.3-12.5l4,4-14.4,8.4Z"/>
  <path class="st0" d="M49.7,73.2c-5.2-7.3-11.6,2.2-11.6,2.2-5.5,7.4-10.7,2.5-10.7,2.5-9.6-4.9-13.6,2.4-13.6,2.4-2.4,6.9-11.4,9.8-11.4,9.8,1,1.5,9.7-1.1,9.7-1.1,7.2-3.4,7.4-2.6,10.8-2.6s7.7,7.3,14.1,12.7c6.4,5.3,14.1-.8,14.1-.8-4.3-12.7-1.3-25.1-1.3-25.1ZM26.1,78.9s8.3,7.7,15-2.8c0,0,3.7-5.2,6.6,1.2l-.8,6s-3.9-4.6-7.6-1.1c-3.7,3.4-6.7,2.9-12.6.4s-6.7-2.7-12.3.7c0,0,3.4-7.7,11.6-4.3ZM47.7,95.2s-4.6,7.3-14.7-3.4c0,0-7.2-11.6-19.7-4.8,0,0,5.9-8.9,15-2.3,0,0,5.3,2.7,9.4,1,4.1-1.7,4.5-1.6,5.4-.8,0,0,6.9,4.6,4.6,10.5Z"/>
  <path class="st1" d="M90.6,77.9s6.4,3.5,6.6,4.7,1-2.3-1.5-3.9-3.5-1.6-5.1-.8Z"/>
  <path class="st0" d="M119.1,80.5c-2.5-9.6-4.7-12.8-6.6-15.3-1.9-2.5-10.4-10-16.5-11.1-6.1-1.1-11.2-2-16.9-1.8-5.7.2-10.5,3.7-14.6,6.9s-6.3,7.8-6.3,7.8l-3.7,6c-2.8,3.5-4.1,12.2-2.1,19.2,2,7,6.9,14,11.3,18.1s14.4,11.1,29.2,7.7c14.7-3.4,19.3-11.4,21.4-14.1s7.2-13.8,4.7-23.4ZM58.6,69.9c4.4-6,7.2-10.8,12.4-12.8,5.2-2,8.2.3,8.2,1.7s1.1,2.8-2.2,3.7c-3.3.9-7.3,2.3-7.3,4s-.7,3.5,1.1,4.8c1.8,1.3,4.7,2.8,4.7,2.8,0,0-2.5,6.2-2.2,8.8s-5.4-10.2-5.4-12.4c0-2.3-5,13.4,4.9,25.4l-1.3,1.8s-13.2-10-7.7-28.3c0,0-.9-1-2.5,2-1.6,3-6.1,10.9-6.1,10.9,0,0-1.1-6.2,3.3-12.3ZM77.8,74.7c1.7,1.1,10.9,2.3,10.9,2.3l-2.4,2.3c5.6-1.1,9.4,4.3,9.4,4.3l-21.1,10.2c-5.2-4.7-4.7-8.5-4.7-8.5,2.3,3.4,7.5,4.6,7.5,4.6-2.7-6.1-1.3-16.3.4-15.2ZM88.7,108.8c-14.6,4.9-23.8-6.1-23.8-6.1-12.2-10.5-7.2-20-7.2-20,1.2,6.6,13.1,16.5,13.1,16.5-.9,8.4,17.9,9.7,17.9,9.7ZM72.7,100.3c10.6,3.8,11.2,1,11.2,1-6.8-1-8.3-5.6-8.3-5.6,3.7-3.4,17-8.8,19.2-9.9,2.3-1.1,2.8,2.3,2.8,2.3.6,8.5,2,6,2,6,8.9-17.3-5.2-24.4-5.2-24.4-10.2-4.6-15.1,3.8-15.1,3.8l-2-1c1.3-4.3,7.4-6.7,7.4-6.7,16.8-3.7,20.4,18.7,20.4,18.7,1.5,17.8-13.1,22.8-13.1,22.8-20.1-.6-19.3-7-19.3-7ZM90.5,73.2s-5.3-2.4-8.4-.6c0,0,5.4-4.1,12.2-.6,6.8,3.5,7,11.5,5.9,15.8l-2.1-3.6s2.8-5-1.7-6.9-5.9-4.1-5.9-4.1ZM90.6,75.2s-5.3.7-6.9-.7c-1.6-1.4-.4-.4-.4-.4,0,0,.1,0,.4,0,1.2-.2,4.7-.6,6.9,1.2ZM75.8,115c-17.2-4.8-22.7-23.4-22.3-30.3,0,0,1.3,17,17.1,24.3,0,0,12.4,7.2,22.7,0l11.4,1.1s-11.7,9.8-28.9,5ZM107.6,108.5l-12.5-.8c11.3-5.9,13.4-17.8,13.4-17.8,2.5-24.3-18.2-27.6-18.2-27.6-13.1,1.1-12.8,9.9-14.6,10-1.8.1-4.4-2.3-4.4-4.4s7.4-4.3,11.5-6.1-5-7.1-5-7.1c0,0,10.2-2.3,17.4,1.2,7.2,3.5,15.3,6.3,20.1,22.6,4.7,16.3-7.6,30-7.6,30Z"/>
</svg>