<?xml version="1.0" encoding="UTF-8"?>
<svg id="Layer_1" xmlns="http://www.w3.org/2000/svg" version="1.1" viewBox="0 0 91 55">
  <!-- Generator: Adobe Illustrator 29.8.1, SVG Export Plug-In . SVG Version: 2.1.1 Build 2)  -->
  <defs>
    <style>
      .st0 {
        fill: #fff;
      }
    </style>
  </defs>
  <path class="st0" d="M33.4,13.2s0,0,0,0c.3,0,.6-.5.8-.3,0,0,.2.2.4.1.2,0,.4-.2.6-.3h.1c.2,0,.2,0,.4-.2h.1c0,0,0,0,0,0,0,.4.1.8,0,1.3,0,.3-.2.7-.2,1,0,.3,0,.5,0,.8,0,.6-.2,1.2-.2,1.8,0,.5,0,.9,0,1.4,0,.3.1.7,0,1,0,.2-.1.4-.2.5-.4.5-.6.3-.7,1.1.2.2.4.3.5.5,0,0,0,0,0,0,0,0-.1,0-.2,0,0,.1,0,.2,0,.3-.4,0-.7-.2-1.1-.2h0c-.8,0-1.6-.2-2.3-.2-.8,0-1.6-.1-2.4-.2-.8,0-1.6,0-2.4,0-.8,0-1.6,0-2.4,0,2-2.7,4.4-5.1,7.1-7.2.6-.4,1.1-.9,1.8-1.3Z"/>
  <path class="st0" d="M90.2,27.9h0c-.3,2.5-1,4.9-2.3,7-2.1,3.4-5.3,5.9-9.2,6.8-5.2,1.3-10.8-.2-15.4-2.6-.9-.5-1.8-1-2.8-1.6-.7-.4-1.3-.9-1.9-1.4,6.5,2.7,12.5,4.3,19.4,1.9,4.5-1.6,10-5.8,12.1-10.1Z"/>
  <path class="st0" d="M53.3,17.2c3.8,0,7.9,1,11.1,3,.5.3,2,1.3,2.2,1.8-.2-.2-.4-.3-.7-.4-2.3-1-5.5-1.4-7.9-.5-1.8.7-3.2,2.2-3.9,3.9-.9,2-.9,4.4-.3,6.4.1.3.3.7.4,1h0s-.3-.2-.3-.2c-3.8-3.5-7.9-6.3-12.8-8.2-1-.4-2-.8-3-1,.1-.1.3-.2.4-.3.1-.1.3-.2.4-.3.1-.1.3-.2.4-.3.1-.1.3-.2.4-.3.1-.1.3-.2.4-.3.1,0,.3-.2.4-.3.1,0,.3-.2.4-.3.1,0,.3-.2.4-.3.1,0,.3-.2.4-.3.1,0,.3-.2.4-.3.2,0,.3-.2.5-.2.2,0,.3-.2.5-.2.2,0,.3-.1.5-.2.2,0,.3-.1.5-.2.2,0,.3-.1.5-.2.2,0,.3-.1.5-.2.2,0,.3-.1.5-.2.2,0,.3-.1.5-.2.2,0,.3-.1.5-.2.2,0,.3-.1.5-.2.2,0,.3,0,.5-.1.2,0,.3,0,.5-.1.2,0,.3,0,.5-.1.2,0,.3,0,.5-.1.2,0,.3,0,.5,0s.3,0,.5,0c.2,0,.3,0,.5,0,.2,0,.3,0,.5,0,.2,0,.3,0,.5,0,.2,0,.3,0,.5,0,.2,0,.3,0,.5,0,.2,0,.3,0,.5,0Z"/>
  <path class="st0" d="M19.2,29c.5,0,1,0,1.5,0,1,0,2,0,3,0,1,0,2,.2,2.9.3,5.7.9,10.9,3.4,15.5,6.9,2.2,1.7,4.3,3.5,6.6,5.1,6.9,5,14.2,8,22.9,7.6,0,0,0,0,0,0-.5.3-1.4.5-2,.6-4.8,1.2-10,.9-14.8,0-1.1-.2-2.2-.6-3.3-.9-5.2-1.6-9.8-4.1-14.2-7.3-1.1-.8-2.2-1.7-3.4-2.6-1.3-1-2.7-1.9-4.2-2.8-7.2-4.2-14.2-5.2-22.4-3.6-1.5.3-3,.7-4.5,1.1,5-2.7,10.8-4.2,16.4-4.5Z"/>
  <path class="st0" d="M25.9,22.9c.4,0,.8,0,1.2,0,.4,0,.8,0,1.2,0,.4,0,.8,0,1.2,0,.4,0,.8,0,1.2,0,.4,0,.8,0,1.2.1.4,0,.8.1,1.2.2.4,0,.8.1,1.2.2.4,0,.8.2,1.2.3,4.8,1.1,9,3.1,13.1,6,2,1.5,3.9,3.1,5.8,4.7,4.7,3.9,9.7,7.3,15.8,8.6,4.7.9,9.6.6,13.6-2.2.5-.3,2.3-1.6,2.4-2.1,0,0,0,.2,0,.3-.1.4-.5.8-.7,1.1-1.4,1.8-3.1,3.4-5.1,4.6-5.4,3.1-11.6,3.2-17.4,1.6-5.4-1.6-9.7-4.5-13.9-8.2-1.6-1.4-3.1-2.9-4.8-4.3-2.3-2-4.9-3.7-7.6-5-6.7-3.2-14.8-3.6-22-2-2.1.5-4.2,1.1-6.2,1.9-1.2.4-2.5.9-3.7,1.5-1,.4-1.9.9-2.9,1.3h0c7.8-5.1,14.4-8.1,23.8-8.5Z"/>
  <path class="st0" d="M33.4,13.2c1.4-1.1,3-1.9,4.6-2.6.2,0,.4-.2.6-.3.2,0,.4-.2.6-.3.2,0,.4-.2.6-.3.2,0,.4-.2.6-.3.2,0,.4-.2.6-.2.2,0,.4-.2.6-.2.2,0,.4-.1.6-.2.2,0,.4-.1.6-.2.2,0,.4-.1.6-.2.2,0,.4-.1.6-.2.2,0,.4-.1.6-.2.2,0,.4-.1.6-.2.2,0,.4-.1.7-.1.2,0,.4,0,.7-.1.2,0,.4,0,.7-.1.2,0,.4,0,.7-.1.2,0,.4,0,.7-.1.2,0,.4,0,.7,0,.2,0,.4,0,.7,0,.2,0,.4,0,.7,0,.2,0,.4,0,.7,0,.2,0,.4,0,.7,0,.2,0,.4,0,.7,0,.2,0,.4,0,.7,0,.2,0,.4,0,.7,0,.2,0,.4,0,.7,0,.2,0,.4,0,.7,0,.2,0,.4,0,.7,0,.2,0,.4,0,.7,0,.2,0,.4,0,.7,0,.2,0,.4,0,.7,0,.2,0,.4,0,.7,0,6.1.7,12.5,3.4,16.4,8.4,2,2.5,3.3,5.6,2.8,8.9-.3,2.7-1.9,5-4,6.7,0,0-.2.1-.3.2,0,0-.2.1-.3.2,0,0-.2.1-.3.2,0,0-.2.1-.3.2,0,0-.2.1-.3.2,0,0-.2,0-.3.1,0,0-.2,0-.3.1,0,0-.2,0-.3.1,0,0-.2,0-.3.1,0,0-.2,0-.3.1-.1,0-.2,0-.3,0-.1,0-.2,0-.3,0-.1,0-.2,0-.3,0-.1,0-.2,0-.3,0-.1,0-.2,0-.3,0-.1,0-.2,0-.3,0,1.2-.6,2.1-1.8,2.6-3.1.7-1.8.4-3.7-.4-5.4-1.6-3.5-5.7-6.4-9.2-7.7-6.3-2.3-13-1.7-19.1,1-2.6,1.2-4.8,2.8-7.1,4.6-.7-.1-1.4-.2-2.2-.4h0c.4,0,.8.1,1.1.1,0-.1-.1-.2,0-.3,0,0,.1,0,.2,0,0,0,0,0,0,0-.1-.2-.4-.4-.5-.5,0-.7.3-.6.7-1.1.1-.1.2-.4.2-.5,0-.3,0-.7,0-1,0-.5,0-.9,0-1.4,0-.6.2-1.2.2-1.8,0-.3,0-.5,0-.8,0-.3.1-.7.2-1,0-.4,0-.8,0-1.3h0s-.1,0-.1,0c-.1.1-.2.3-.4.3h-.1c-.2,0-.4.1-.6.2-.1,0-.3,0-.4-.1-.3-.2-.6.3-.8.3,0,0,0,0,0,0Z"/>
</svg>