<?xml version="1.0" encoding="UTF-8"?>
<svg id="Layer_1" xmlns="http://www.w3.org/2000/svg" version="1.1" viewBox="0 0 62.1 60">
  <!-- Generator: Adobe Illustrator 29.8.1, SVG Export Plug-In . SVG Version: 2.1.1 Build 2)  -->
  <defs>
    <style>
      .st0 {
        fill: #fff;
      }

      .st1 {
        fill: none;
        stroke: #64ff57;
        stroke-miterlimit: 10;
        stroke-width: .1px;
      }
    </style>
  </defs>
  <path class="st0" d="M14,13.7s-.9-.2-.2.5c0,0,4.2,4.6,5.4,7.8,0,0,1.9-2.4,3.6-3.5,0,0-6.4-2.4-8.8-4.8ZM19.3,20.9l-2.9-4.5,4.4,2.6-1.4,1.9Z"/>
  <path class="st0" d="M35.9,17.7c-.5-.8,0-2.1,0-2.1,0,0,1.1-1,.7-3-.4-2-1.9-2.6-3.9-3.8-2-1.2-.5-4.1-.5-4.1,1-1.9.3-3.2.3-3.2-.2,1.1-1.8,2.8-1.8,2.8-2.8,2.4-1.4,4.8-1.4,4.8,1.6,3-1.1,4.7-1.1,4.7-2.4,1.8-1.2,5-1.2,5,3.4-1.1,7.8.1,8.7.4.9.3.7-.2.7-.2,0,0,0-.4-.6-1.2ZM30.3,17.6h-1.9c0,.1-1.4-2.1,1.2-4.4,0,0,1.7-.8,1.1-2.9-.6-2.1-1.3-2.1-1-3.4.3-1.2.7-1.2.7-1.2,0,0,.2,2.4,1,3.2.7.7,1.3,2.5,1.2,3.1s0,1.2-1.2,2.8c-1.3,1.6-1,2.8-1,2.8ZM34.2,18.1l-2.1-.4s-.6-1.7.8-3.4c0,0,1.1-2.4-.5-4.6s-1.7-3.7-1.1-4.8c0,0-.5,2.5,1.2,4.5,0,0,1,.7,2,1.1,1.1.4,1.6,1.3,1.4,2.5-.1.7.1.8-1.1,2s-.6,3-.6,3Z"/>
  <path class="st0" d="M47.9,14.4c-1.1.7-7,5.2-8.5,5.9l3.3,3.6s4.2-7.8,6.4-9.8c0,0-.2-.4-1.2.3ZM45.3,18.4l-3,3.5-1.5-1.6s1.5-1.3,2.3-1.7c.8-.3,1.1-.2,1.1-.2.7-1.2,2.6-2.4,2.6-2.4l-1.6,2.4Z"/>
  <path class="st0" d="M59.8,34.5s-2.5-2.9-3.1-3.3c-.7-.4-2.9-1.5-5.6-1.3,0,0-2.3,0-4.1-2.2s-3.4-.9-3.4-.9c0,0,1.7,5.3,0,9.4,0,0,2-1,3.7.8,0,0,1.9,1.8,4,.2,0,0,2.1-3.8,7.4-2.4l2.9,1-1.7-1.4ZM51.4,36c-.9.9-2.1,1.5-3.4,0-1.4-1.5-3.3-1.4-3.3-1.4l.2-2.9c1.8-.1,2.3.9,2.3.9,2.1,1.9,4,1,4,1,4.1-2.1,6.4.5,6.4.5-3.1-.7-5.2,1-6.1,1.9ZM52,32.4c-2.2,1-3.3.3-4.2-.8-.9-1.1-3.1-1.9-3.1-1.9v-1.5s1.5,0,3,1.7c1.5,1.6,3.6,1,3.6,1,4.6-.8,6.6,2.7,6.6,2.7-1.5-1.2-3.7-2.2-5.9-1.1Z"/>
  <path class="st0" d="M42.4,38.7s-.9,2.1-3.5,4l9.3,5.6-5.8-9.6ZM40.6,42.3c.4-.2,1.9-2,1.9-2h.2l1.7,3s-4.2-.8-3.8-1ZM46.4,46.4l-4.5-3.1s4,.5,4.5,3.1Z"/>
  <path class="st0" d="M36,43.3s-4.3,2.4-10.6,0c0,0-2.1,3.8,1.5,5.8,0,0,2.4.6,1.4,3.1-1,2.6-.8,3.3,2.2,6.6,0,0,1.1.8.5-.2s-.9-3.6,1.2-5.4c2.1-1.7,2.9-2.9,2.4-5.2,0,0-.3-1.8,1.2-3.2,0,0,.7-.7.2-1.5ZM28.6,53.3c.5-1.6,1.1-1.5.7-3.1s-1.9-2.2-1.9-2.2c0,0-1.6-2.5-.5-3.4h.7v.6s0,2.3,2.2,3.1c0,0,1.7,1.1.4,3.2-1.3,2.1-1,4.7-1,4.7,0,0-1.1-1.3-.6-2.9ZM32.8,51.9c-2.4,1.8-2.9,4.3-2.9,4.3-.5-.8.3-2.9.3-2.9,0,0,.7-1.2,1.3-2.5s.2-2.2-1.3-3.3c-1.5-1.1-.5-2.3-.5-2.3,1.1.3,3.9-.3,3.9-.3v.4c-.9,1.1-.2,3-.2,3,1.4,2.7-.6,3.6-.6,3.6Z"/>
  <path class="st0" d="M18.9,38.7c-1.3,2.9-5.5,8.6-5.5,8.6,4-2.3,9-4.7,9-4.7-1.3-.8-3.5-3.9-3.5-3.9ZM15.6,45.6s1.2-2.5,3.7-4.5l1.5,1.5-5.2,3Z"/>
  <path class="st0" d="M17.8,26.7c-1.9-2.6-4.2.8-4.2.8-2,2.7-3.9.9-3.9.9-3.5-1.8-4.9.9-4.9.9-.9,2.5-4.1,3.5-4.1,3.5.4.5,3.5-.4,3.5-.4,2.6-1.2,2.7-.9,3.9-.9s2.8,2.6,5.1,4.6c2.3,1.9,5.1-.3,5.1-.3-1.6-4.6-.5-9-.5-9ZM9.2,28.8s3,2.8,5.4-1c0,0,1.3-1.9,2.4.4l-.3,2.1s-1.4-1.7-2.7-.4c-1.3,1.2-2.4,1.1-4.5.2s-2.4-1-4.4.3c0,0,1.2-2.8,4.2-1.6ZM17,34.6s-1.6,2.6-5.3-1.2c0,0-2.6-4.2-7.1-1.7,0,0,2.1-3.2,5.4-.8,0,0,1.9,1,3.4.4,1.5-.6,1.6-.6,2-.3,0,0,2.5,1.7,1.7,3.8Z"/>
  <path class="st1" d="M32.5,28.4s2.3,1.3,2.4,1.7.4-.8-.5-1.4-1.2-.6-1.8-.3Z"/>
  <path class="st0" d="M42.7,29.3c-.9-3.5-1.7-4.6-2.4-5.5-.7-.9-3.7-3.6-6-4-2.2-.4-4-.7-6.1-.7-2,0-3.8,1.3-5.2,2.5s-2.3,2.8-2.3,2.8l-1.3,2.2c-1,1.2-1.5,4.4-.8,6.9.7,2.5,2.5,5.1,4.1,6.5s5.2,4,10.5,2.8c5.3-1.2,6.9-4.1,7.7-5.1s2.6-5,1.7-8.4ZM21,25.5c1.6-2.2,2.6-3.9,4.5-4.6,1.9-.7,3,0,3,.6s.4,1-.8,1.3c-1.2.3-2.6.8-2.6,1.4s-.3,1.2.4,1.7c.6.5,1.7,1,1.7,1,0,0-.9,2.2-.8,3.2s-2-3.7-1.9-4.5c0-.8-1.8,4.8,1.8,9.1l-.5.6s-4.7-3.6-2.8-10.2c0,0-.3-.4-.9.7-.6,1.1-2.2,3.9-2.2,3.9,0,0-.4-2.2,1.2-4.4ZM27.9,27.3c.6.4,3.9.8,3.9.8l-.9.8c2-.4,3.4,1.5,3.4,1.5l-7.6,3.7c-1.9-1.7-1.7-3.1-1.7-3.1.8,1.2,2.7,1.6,2.7,1.6-1-2.2-.5-5.9.1-5.5ZM31.8,39.5c-5.3,1.8-8.6-2.2-8.6-2.2-4.4-3.8-2.6-7.2-2.6-7.2.4,2.4,4.7,5.9,4.7,5.9-.3,3,6.5,3.5,6.5,3.5ZM26,36.5c3.8,1.4,4,.4,4,.4-2.4-.4-3-2-3-2,1.3-1.2,6.1-3.2,6.9-3.5.8-.4,1,.8,1,.8.2,3.1.7,2.2.7,2.2,3.2-6.2-1.9-8.8-1.9-8.8-3.7-1.7-5.4,1.4-5.4,1.4l-.7-.4c.5-1.5,2.7-2.4,2.7-2.4,6.1-1.3,7.4,6.7,7.4,6.7.5,6.4-4.7,8.2-4.7,8.2-7.2-.2-7-2.5-7-2.5ZM32.4,26.7s-1.9-.9-3-.2c0,0,2-1.5,4.4-.2,2.4,1.2,2.5,4.1,2.1,5.7l-.8-1.3s1-1.8-.6-2.5-2.1-1.5-2.1-1.5ZM32.5,27.4s-1.9.2-2.5-.2c-.6-.5-.1-.1-.1-.1,0,0,0,0,.1,0,.4,0,1.7-.2,2.5.4ZM27.1,41.8c-6.2-1.7-8.2-8.4-8-10.9,0,0,.5,6.1,6.2,8.8,0,0,4.5,2.6,8.2,0l4.1.4s-4.2,3.5-10.4,1.8ZM38.6,39.4l-4.5-.3c4.1-2.1,4.8-6.4,4.8-6.4.9-8.8-6.5-9.9-6.5-9.9-4.7.4-4.6,3.6-5.2,3.6-.6,0-1.6-.8-1.6-1.6s2.7-1.6,4.1-2.2-1.8-2.5-1.8-2.5c0,0,3.7-.8,6.3.4,2.6,1.3,5.5,2.3,7.2,8.1,1.7,5.9-2.7,10.8-2.7,10.8Z"/>
</svg>